<?xml version="1.0" encoding="UTF-8"?>
<svg width="24px" height="24px" viewBox="0 0 24 24" version="1.1" xmlns="http://www.w3.org/2000/svg" xmlns:xlink="http://www.w3.org/1999/xlink">
    <!-- Generator: Sketch 55.1 (78136) - https://sketchapp.com -->
    <title>icons/disconnected</title>
    <desc>Created with Sketch.</desc>
    <g id="icons/disconnected" stroke="none" stroke-width="1" fill="none" fill-rule="evenodd">
        <g transform="translate(1.000000, 4.000000)" fill="#BDC2C7" id="Shape">
            <path d="M11.5239053,10.4025849 C11.3185075,10.3770046 11.1100648,10.363961 10.8994949,10.363961 C9.55447155,10.363961 8.2962401,10.8961481 7.36396103,11.8284271 C6.97343674,12.2189514 6.34027176,12.2189514 5.94974747,11.8284271 C5.55922318,11.4379028 5.55922318,10.8047379 5.94974747,10.4142136 C6.94893054,9.41503049 8.21926897,8.74307184 9.60503014,8.48370979 L7.97193046,6.85061012 C6.68449698,7.29279262 5.51061268,8.02492123 4.53553391,9 C4.14500961,9.39052429 3.51184464,9.39052429 3.12132034,9 C2.73079605,8.60947571 2.73079605,7.97631073 3.12132034,7.58578644 C4.08349992,6.62360686 5.20535603,5.85461688 6.43087661,5.30955626 L4.93203383,3.81071348 C3.75044014,4.4220399 2.66260156,5.21607809 1.70710678,6.17157288 C1.31658249,6.56209717 0.683417511,6.56209717 0.292893219,6.17157288 C-0.0976310729,5.78104858 -0.0976310729,5.1478836 0.292893219,4.75735931 C1.243399,3.80685353 2.30806563,2.99463451 3.45792742,2.33660707 L2.82842712,1.70710678 C2.43790283,1.31658249 2.43790283,0.683417511 2.82842712,0.292893219 C3.21895142,-0.0976310729 3.8521164,-0.0976310729 4.24264069,0.292893219 L16.9705627,13.0208153 C17.361087,13.4113396 17.361087,14.0445046 16.9705627,14.4350288 C16.5800385,14.8255531 15.9468735,14.8255531 15.5563492,14.4350288 L11.5239053,10.4025849 L11.5239053,10.4025849 Z M12.4461918,6.49644432 C11.9755596,6.02581213 11.6225855,5.67283798 11.3872694,5.43752189 C11.1519533,5.20220579 10.7989791,4.84923164 10.3283469,4.37859945 C10.5178657,4.36886727 10.7082971,4.36396103 10.8994949,4.36396103 C11.2533878,4.36396103 11.6046552,4.38076944 11.9523693,4.41387703 C14.5092605,4.65733132 16.8740127,5.78212959 18.6776695,7.58578644 C19.0681938,7.97631073 19.0681938,8.60947571 18.6776695,9 C18.2871452,9.39052429 17.6539803,9.39052429 17.263456,9 C15.9492592,7.68580321 14.2739271,6.81293148 12.4461918,6.49644432 L12.4461918,6.49644432 Z M8.52941956,2.57967209 C8.1592005,2.20945303 7.88153621,1.93178874 7.69642668,1.74667921 C7.51131715,1.56156968 7.23365285,1.28390538 6.86343379,0.913686324 C8.15931881,0.552662409 9.5146155,0.363961031 10.8994949,0.363961031 C14.9310247,0.363961031 18.7118545,1.96311721 21.5060967,4.75735931 C21.8966209,5.1478836 21.8966209,5.78104858 21.5060967,6.17157288 C21.1155724,6.56209717 20.4824074,6.56209717 20.0918831,6.17157288 C17.6689956,3.74868534 14.3951396,2.36396103 10.8994949,2.36396103 C10.0951729,2.36396103 9.30259296,2.43727195 8.52941956,2.57967209 L8.52941956,2.57967209 Z M10.8994949,16.363961 C9.79492544,16.363961 8.89949494,15.4685305 8.89949494,14.363961 C8.89949494,13.2593915 9.79492544,12.363961 10.8994949,12.363961 C12.0040644,12.363961 12.8994949,13.2593915 12.8994949,14.363961 C12.8994949,15.4685305 12.0040644,16.363961 10.8994949,16.363961 Z"></path>
        </g>
    </g>
</svg>