<?xml version="1.0" encoding="UTF-8"?>
<svg width="24px" height="24px" viewBox="0 0 24 24" version="1.1" xmlns="http://www.w3.org/2000/svg" xmlns:xlink="http://www.w3.org/1999/xlink">
    <!-- Generator: Sketch 55.1 (78136) - https://sketchapp.com -->
    <title>icons/permission_denied</title>
    <desc>Created with Sketch.</desc>
    <g id="icons/permission_denied" stroke="none" stroke-width="1" fill="none" fill-rule="evenodd">
        <g transform="translate(4.000000, 2.000000)" id="Group">
            <g>
                <path d="M0,8 C0,3.581722 3.581722,0 8,0 C12.418278,0 16,3.581722 16,8 C16,10.9238306 13.5540999,14.7673878 8.71377889,19.7003711 C8.3217781,20.0998763 7.6782219,20.0998763 7.28622111,19.7003711 C2.44590009,14.7673878 0,10.9238306 0,8 Z" id="Mask" fill="#BDC2C7" fill-rule="nonzero"></path>
                <path d="M9.33333333,8.5 L11.7238576,6.10947571 C12.0920475,5.74128588 12.0920475,5.14433221 11.7238576,4.77614237 C11.3556678,4.40795254 10.7587141,4.40795254 10.3905243,4.77614237 L8,7.16666667 L5.60947571,4.77614237 C5.24128588,4.40795254 4.64433221,4.40795254 4.27614237,4.77614237 C3.90795254,5.14433221 3.90795254,5.74128588 4.27614237,6.10947571 L6.66666667,8.5 L4.27614237,10.8905243 C3.90795254,11.2587141 3.90795254,11.8556678 4.27614237,12.2238576 C4.64433221,12.5920475 5.24128588,12.5920475 5.60947571,12.2238576 L8,9.83333333 L10.3905243,12.2238576 C10.7587141,12.5920475 11.3556678,12.5920475 11.7238576,12.2238576 C12.0920475,11.8556678 12.0920475,11.2587141 11.7238576,10.8905243 L9.33333333,8.5 Z" id="Shape" fill="#FFFFFF"></path>
            </g>
        </g>
    </g>
</svg>