<?xml version="1.0" encoding="UTF-8"?>
<svg width="24px" height="24px" viewBox="0 0 24 24" version="1.1" xmlns="http://www.w3.org/2000/svg" xmlns:xlink="http://www.w3.org/1999/xlink">
    <!-- Generator: Sketch 55.1 (78136) - https://sketchapp.com -->
    <title>icons/run</title>
    <desc>Created with Sketch.</desc>
    <g id="icons/run" stroke="none" stroke-width="1" fill="none" fill-rule="evenodd">
        <g transform="translate(5.000000, 1.000000)">
            <path d="M3.74396382,6.15566739 L7.79125696,14.9534159 C8.18152241,15.8017501 7.93280659,16.8072406 7.19205908,17.37581 L5.68204817,18.5348365" id="Line-3-Copy" stroke="#000000" stroke-width="3" stroke-linecap="round" transform="translate(6.101217, 12.345252) rotate(37.508464) translate(-6.101217, -12.345252) "></path>
            <circle id="Oval" stroke="#000000" stroke-width="2" cx="9.5" cy="2" r="1"></circle>
            <path d="M8,5.75 L5.43128209,5.93347985 C4.8247741,5.97680185 4.2457479,6.20340168 3.7709381,6.58324952 L2,8" id="Path-3" stroke="#000000" stroke-width="2.5" stroke-linecap="round"></path>
            <path d="M13.3512921,6.83167136 L11.9460485,6.74329578 C11.2117275,6.69711443 10.4860409,6.92240038 9.90697298,7.3763171 L7.8572778,8.98302129" id="Path-3" stroke="#000000" stroke-width="2.5" stroke-linecap="round" transform="translate(10.604285, 7.827310) scale(1, -1) rotate(-15.000000) translate(-10.604285, -7.827310) "></path>
            <path d="M8.1100862,16.8550396 L9.18105064,12.0900487 L12.86699,19.8056969 C13.2276324,20.5606172 12.9213348,21.4654295 12.1762879,21.8460512 C11.4546761,22.2147005 10.5708448,21.9285679 10.2021954,21.2069561 C10.1967932,21.1963816 10.1915195,21.1857418 10.1863756,21.1750392 L8.1100862,16.8550396 Z" id="Path-6" fill="#000000" fill-rule="evenodd"></path>
        </g>
    </g>
</svg>