<?xml version="1.0" encoding="UTF-8"?>
<svg width="24px" height="24px" viewBox="0 0 24 24" version="1.1" xmlns="http://www.w3.org/2000/svg" xmlns:xlink="http://www.w3.org/1999/xlink">
    <!-- Generator: Sketch 55.1 (78136) - https://sketchapp.com -->
    <title>icons/train</title>
    <desc>Created with Sketch.</desc>
    <g id="icons/train" stroke="none" stroke-width="1" fill="none" fill-rule="evenodd">
        <g transform="translate(4.000000, 2.000000)" fill="#000000" id="Combined-Shape">
            <path d="M5,2 L11,2 C13.7614237,2 16,4.23857625 16,7 L16,13 C16,16.3137085 13.3137085,19 10,19 L6,19 C2.6862915,19 4.05812251e-16,16.3137085 0,13 L0,7 C-3.38176876e-16,4.23857625 2.23857625,2 5,2 Z M5.5,3.5 C5.22385763,3.5 5,3.72385763 5,4 C5,4.27614237 5.22385763,4.5 5.5,4.5 L10.5,4.5 C10.7761424,4.5 11,4.27614237 11,4 C11,3.72385763 10.7761424,3.5 10.5,3.5 L5.5,3.5 Z M3.75,15.5 C4.44035594,15.5 5,14.9403559 5,14.25 C5,13.5596441 4.44035594,13 3.75,13 C3.05964406,13 2.5,13.5596441 2.5,14.25 C2.5,14.9403559 3.05964406,15.5 3.75,15.5 Z M12.25,15.5 C12.9403559,15.5 13.5,14.9403559 13.5,14.25 C13.5,13.5596441 12.9403559,13 12.25,13 C11.5596441,13 11,13.5596441 11,14.25 C11,14.9403559 11.5596441,15.5 12.25,15.5 Z M3,6 C2.17157288,6 1.5,6.67157288 1.5,7.5 L1.5,10 C1.5,10.8284271 2.17157288,11.5 3,11.5 L13,11.5 C13.8284271,11.5 14.5,10.8284271 14.5,10 L14.5,7.5 C14.5,6.67157288 13.8284271,6 13,6 L3,6 Z M4.5,0 L11.5,0 C11.7761424,-5.07265313e-17 12,0.223857625 12,0.5 C12,0.776142375 11.7761424,1 11.5,1 L4.5,1 C4.22385763,1 4,0.776142375 4,0.5 C4,0.223857625 4.22385763,5.07265313e-17 4.5,0 Z"></path>
        </g>
    </g>
</svg>