<?xml version="1.0" encoding="UTF-8"?>
<svg width="24px" height="24px" viewBox="0 0 24 24" version="1.1" xmlns="http://www.w3.org/2000/svg" xmlns:xlink="http://www.w3.org/1999/xlink">
    <!-- Generator: Sketch 55.1 (78136) - https://sketchapp.com -->
    <title>icons/drive</title>
    <desc>Created with Sketch.</desc>
    <g id="icons/drive" stroke="none" stroke-width="1" fill="none" fill-rule="evenodd">
        <g transform="translate(3.000000, 6.000000)" stroke="#000000">
            <path d="M2,6 L2.96849238,1.57260624 C3.16934144,0.654439119 3.98241412,1.72652842e-16 4.92229242,0 L13.0777076,0 C14.0175859,2.18037567e-16 14.8306586,0.654439119 15.0315076,1.57260624 L16,6 L2,6 Z" id="Path-2" stroke-width="2" stroke-linejoin="round"></path>
            <path d="M2.5,11.5 L15.5,11.5 L15.5,13 C15.5,13.2761424 15.7238576,13.5 16,13.5 L17,13.5 C17.2761424,13.5 17.5,13.2761424 17.5,13 L17.5,7 C17.5,6.17157288 16.8284271,5.5 16,5.5 L2,5.5 C1.17157288,5.5 0.5,6.17157288 0.5,7 L0.5,13 C0.5,13.2761424 0.723857625,13.5 1,13.5 L2,13.5 C2.27614237,13.5 2.5,13.2761424 2.5,13 L2.5,11.5 Z M3.5,10.5 C2.3954305,10.5 1.5,9.6045695 1.5,8.5 C1.5,7.3954305 2.3954305,6.5 3.5,6.5 C4.6045695,6.5 5.5,7.3954305 5.5,8.5 C5.5,9.6045695 4.6045695,10.5 3.5,10.5 Z M14.5,10.5 C13.3954305,10.5 12.5,9.6045695 12.5,8.5 C12.5,7.3954305 13.3954305,6.5 14.5,6.5 C15.6045695,6.5 16.5,7.3954305 16.5,8.5 C16.5,9.6045695 15.6045695,10.5 14.5,10.5 Z" id="Combined-Shape" stroke-width="1" fill="#000000" fill-rule="evenodd"></path>
        </g>
    </g>
</svg>