<?xml version="1.0" encoding="UTF-8"?>
<svg width="24px" height="24px" viewBox="0 0 24 24" version="1.1" xmlns="http://www.w3.org/2000/svg" xmlns:xlink="http://www.w3.org/1999/xlink">
    <!-- Generator: Sketch 55.1 (78136) - https://sketchapp.com -->
    <title>icons/plane</title>
    <desc>Created with Sketch.</desc>
    <g id="icons/plane" stroke="none" stroke-width="1" fill="none" fill-rule="evenodd">
        <g transform="translate(2.000000, 3.000000)">
            <path d="M9.51862356,1.55870669 L10,16 L10.4813764,1.55870669 C10.4935985,1.19204476 10.4140673,0.828134546 10.25,0.5 C10.1809644,0.361928813 10.0130712,0.305964406 9.875,0.375 C9.82090745,0.402046277 9.77704628,0.445907447 9.75,0.5 C9.58593273,0.828134546 9.50640149,1.19204476 9.51862356,1.55870669 Z" id="Line" stroke="#000000" stroke-width="2.5" stroke-linecap="round" stroke-linejoin="round"></path>
            <path d="M9,5 L9,10 L0,13.5 L0,12.5226226 C-9.66826246e-16,11.8804144 0.308394015,11.277271 0.829018892,10.9012641 L9,5 Z M11,5 L19.1709811,10.9012641 C19.691606,11.277271 20,11.8804144 20,12.5226226 L20,13.5 L11,10 L11,5 Z M10,15 L13.1507914,17.7006783 C13.3724373,17.8906605 13.5,18.16801 13.5,18.4599349 L13.5,19.5 L10,17.4993336 L6.5,19.5 L6.5,18.4599349 C6.5,18.16801 6.62756273,17.8906605 6.84920863,17.7006783 L10,15 Z" id="Combined-Shape" fill="#000000" fill-rule="evenodd"></path>
        </g>
    </g>
</svg>