<?xml version="1.0" encoding="UTF-8"?>
<svg width="24px" height="24px" viewBox="0 0 24 24" version="1.1" xmlns="http://www.w3.org/2000/svg" xmlns:xlink="http://www.w3.org/1999/xlink">
    <!-- Generator: Sketch 55.1 (78136) - https://sketchapp.com -->
    <title>icons/stop</title>
    <desc>Created with Sketch.</desc>
    <g id="icons/stop" stroke="none" stroke-width="1" fill="none" fill-rule="evenodd">
        <g transform="translate(4.500000, 1.500000)">
            <path d="M4.5,0.5 L4.62070075,0.717261342 C4.84929164,1.12872495 4.80133317,1.6384002 4.5,2 C4.19866683,2.3615998 4.15070836,2.87127505 4.37929925,3.28273866 L4.5,3.5" id="Line-Copy" stroke="#000000" stroke-width="1" stroke-linecap="round"></path>
            <path d="M6.5,0.5 L6.62070075,0.717261342 C6.84929164,1.12872495 6.80133317,1.6384002 6.5,2 C6.19866683,2.3615998 6.15070836,2.87127505 6.37929925,3.28273866 L6.5,3.5" id="Line-Copy-2" stroke="#000000" stroke-width="1" stroke-linecap="round"></path>
            <path d="M8.5,0.5 L8.62070075,0.717261342 C8.84929164,1.12872495 8.80133317,1.6384002 8.5,2 C8.19866683,2.3615998 8.15070836,2.87127505 8.37929925,3.28273866 L8.5,3.5" id="Line-Copy-3" stroke="#000000" stroke-width="1" stroke-linecap="round"></path>
            <ellipse id="Oval" stroke="#000000" stroke-width="2" cx="11.5" cy="12.5" rx="3" ry="4"></ellipse>
            <path d="M11.5,18.5 C11.5,19.6045695 9.26142375,20.5 6.5,20.5 C3.73857625,20.5 1.5,19.6045695 1.5,18.5 L1.5,6.5 C1.5,5.3954305 3.73857625,4.5 6.5,4.5 C9.26142375,4.5 11.5,5.3954305 11.5,6.5 L11.5,18.5 Z M6.5,8.5 C8.709139,8.5 10.5,7.82842712 10.5,7 C10.5,6.17157288 8.709139,5.5 6.5,5.5 C4.290861,5.5 2.5,6.17157288 2.5,7 C2.5,7.82842712 4.290861,8.5 6.5,8.5 Z" id="Combined-Shape" fill="#000000" fill-rule="evenodd"></path>
        </g>
    </g>
</svg>