<?xml version="1.0" encoding="UTF-8"?>
<svg width="24px" height="24px" viewBox="0 0 24 24" version="1.1" xmlns="http://www.w3.org/2000/svg" xmlns:xlink="http://www.w3.org/1999/xlink">
    <!-- Generator: Sketch 55.1 (78136) - https://sketchapp.com -->
    <title>icons/unknown_activity</title>
    <desc>Created with Sketch.</desc>
    <g id="icons/unknown_activity" stroke="none" stroke-width="1" fill="none" fill-rule="evenodd">
        <g fill="#000000" id="icons/unkown-activity">
            <g>
                <g id="Group" transform="translate(5.000000, 2.000000)">
                    <polygon id="Path" points="0 5 6 5 3 10"></polygon>
                    <path d="M6,3 L9,3 C9.55228475,3 10,3.44771525 10,4 L10,7.32296704 C10,7.73187163 9.75104906,8.09958038 9.37139068,8.25144373 L7.32119173,9.07152331 C5.91927188,9.63229125 5,10.9900861 5,12.5 L5,14 C5,14.5522847 5.44771525,15 6,15 L8,15 C8.55228475,15 9,14.5522847 9,14 L9,12.677033 C9,12.2681284 9.24895094,11.9004196 9.62860932,11.7485563 L11.5,11 C13.0099139,10.3960344 14,8.93364462 14,7.3074176 L14,4 C14,1.790861 12.209139,-4.05812251e-16 10,0 L5,0 C2.790861,4.05812251e-16 1,1.790861 1,4 L1,6 L5,6 L5,4 C5,3.44771525 5.44771525,3 6,3 Z" id="Path-8"></path>
                    <rect id="Rectangle" x="5" y="16" width="4" height="4" rx="1"></rect>
                </g>
            </g>
        </g>
    </g>
</svg>