<?xml version="1.0" encoding="UTF-8"?>
<svg width="24px" height="24px" viewBox="0 0 24 24" version="1.1" xmlns="http://www.w3.org/2000/svg" xmlns:xlink="http://www.w3.org/1999/xlink">
    <!-- Generator: Sketch 55.1 (78136) - https://sketchapp.com -->
    <title>icons/walk</title>
    <desc>Created with Sketch.</desc>
    <g id="icons/walk" stroke="none" stroke-width="1" fill="none" fill-rule="evenodd">
        <g transform="translate(5.485500, 1.000000)">
            <path d="M3.6272098,5.2624024 L3.92688836,5.2624024 C4.68508111,5.26239752 5.35703488,5.75063608 5.59127937,6.47173648 C6.1518052,8.19726444 6.43206812,10.2700154 6.43206812,12.6899892 C6.43206812,15.3034553 6.09905852,18.0769751 5.43303931,21.0105485 C5.25212105,21.8075006 4.54369809,22.373116 3.7264686,22.373116 L3.60270968,22.373116 C2.93822194,22.373116 2.39954819,21.8344422 2.39954819,21.1699545 C2.39954819,21.086422 2.4082473,21.0031167 2.4255215,20.9213899 C3.09655258,17.743424 3.43206812,15.0003941 3.43206812,12.6923 C3.43206812,10.5638204 3.15199857,8.54859195 2.59185946,6.64661458 C2.42348022,6.07481088 2.75050202,5.47476406 3.32230058,5.30636735 C3.4213119,5.27720816 3.52399401,5.2624024 3.6272098,5.2624024 Z" id="Rectangle" fill="#000000" fill-rule="evenodd" transform="translate(4.267389, 13.817759) rotate(15.000000) translate(-4.267389, -13.817759) "></path>
            <path d="M11.5145001,10 C9.99140291,9.31062259 8.74688735,8.64395592 7.78095347,8 C6.81501959,7.35604408 6.05953515,6.68937741 5.51450014,6" id="Line-5" stroke="#000000" stroke-width="2.5" stroke-linecap="round"></path>
            <path d="M5.51450014,6 C4.28048642,6.40320057 3.36166056,6.98936513 2.75802257,7.7584937 C2.15438459,8.52762226 1.73890501,9.60812436 1.51158386,11" id="Line-4" stroke="#000000" stroke-width="2.5" stroke-linecap="round"></path>
            <circle id="Oval" stroke="#000000" stroke-width="2" cx="6" cy="2" r="1"></circle>
            <path d="M7.88165363,12.4982219 C7.75345005,13.2366808 7.57922801,13.9678686 7.35898752,14.6917852 C7.13874703,15.4157019 6.88182891,16.1016446 6.58823316,16.7496135 L8.69090482,21.1403851 C9.03814337,21.8654841 9.90744472,22.1718005 10.6325437,21.8245619 C10.6416204,21.8202152 10.6506518,21.8157745 10.6596365,21.8112405 C11.3975122,21.4388787 11.7034622,20.5457662 11.3489023,19.799173 L7.88165363,12.4982219 Z" id="Path-5" fill="#000000" fill-rule="evenodd"></path>
        </g>
    </g>
</svg>